<svg width="150px" height="20px" viewBox="0 0 147 20" version="1.1" xmlns="http://www.w3.org/2000/svg" xmlns:xlink="http://www.w3.org/1999/xlink" xmlns:sketch="http://www.bohemiancoding.com/sketch/ns">
    <title>spotify spotlight svg 2</title>
    <desc>Created with Sketch.</desc>
    <defs></defs>
    <g id="Page-1" stroke="none" stroke-width="1" fill="none" fill-rule="evenodd" sketch:type="MSPage">
        <rect id="Rectangle-1" fill="#FFFFFF" sketch:type="MSShapeGroup" x="70" y="5" width="1" height="11"></rect>
        <g id="Imported-Layers" sketch:type="MSLayerGroup">
            <path d="M10.001005,0.0447 C4.48874372,0.0447 0.0198994975,4.491 0.0198994975,9.9758 C0.0198994975,15.461 4.48874372,19.9071 10.001005,19.9071 C15.5135678,19.9071 19.9821106,15.461 19.9821106,9.9758 C19.9821106,4.491 15.5135678,0.0447 10.001005,0.0447" id="Fill-1" fill="#84BD00" sketch:type="MSShapeGroup"></path>
            <path d="M15.5438191,10.6003 C12.4630151,8.7165 7.95648241,8.1864 4.33135678,9.2809 C3.92060302,9.4054 3.68844221,9.8371 3.81246231,10.2466 C3.93748744,10.6553 4.3720603,10.8861 4.78361809,10.7624 C7.95698492,9.804 12.0471357,10.2792 14.7294472,11.9197 C15.0951759,12.1435 15.5740704,12.0292 15.799799,11.6648 C16.0247236,11.3012 15.9095477,10.8244 15.5438191,10.6003" id="Fill-2" fill="#000000" sketch:type="MSShapeGroup"></path>
            <path d="M16.8580905,7.2513 C13.1541709,5.0637 7.29326633,4.858 3.76753769,5.9229 C3.27396985,6.072 2.9958794,6.5906 3.14532663,7.0816 C3.29477387,7.5724 3.81628141,7.8494 4.30954774,7.7005 C7.38090452,6.773 12.6878392,6.9478 15.9051256,8.8489 C16.3477387,9.111 16.9211055,8.9655 17.1842211,8.5241 C17.4472362,8.0834 17.3017085,7.5133 16.8580905,7.2513" id="Fill-3" fill="#000000" sketch:type="MSShapeGroup"></path>
            <path d="M14.3720603,13.5178 C11.7413065,11.9182 8.4798995,11.546 4.67788945,12.4108 C4.34231156,12.4868 4.13326633,12.8189 4.21005025,13.152 C4.28633166,13.485 4.62,13.6938 4.95487437,13.6174 C8.42914573,12.8277 11.3792965,13.1496 13.7231156,14.575 C14.0160804,14.7533 14.3990955,14.6616 14.5784925,14.369 C14.7577889,14.0772 14.6654271,13.696 14.3720603,13.5178" id="Fill-4" fill="#000000" sketch:type="MSShapeGroup"></path>
        </g>
        <g id="Imported-Layers" sketch:type="MSLayerGroup" transform="translate(25.000000, 5.000000)" fill="#FFFFFF">
            <path d="M3.80616092,4.19354545 C2.22942529,3.82181818 1.9485977,3.56090909 1.9485977,3.01281818 C1.9485977,2.49481818 2.44193103,2.14636364 3.17535632,2.14636364 C3.88643678,2.14636364 4.59135632,2.411 5.33057471,2.95590909 C5.35291954,2.97236364 5.38096552,2.979 5.40845977,2.97472727 C5.43604598,2.97063636 5.46050575,2.95563636 5.47668966,2.93309091 L6.24662069,1.86009091 C6.27816092,1.816 6.2696092,1.75509091 6.22694253,1.72127273 C5.34721839,1.02336364 4.3565977,0.684090909 3.19871264,0.684090909 C1.49627586,0.684090909 0.307126437,1.69418182 0.307126437,3.13936364 C0.307126437,4.68918182 1.33287356,5.23790909 3.10556322,5.66145455 C4.61443678,6.00509091 4.86905747,6.29290909 4.86905747,6.80754545 C4.86905747,7.37772727 4.3542069,7.73227273 3.52551724,7.73227273 C2.60514943,7.73227273 1.85443678,7.42572727 1.01462069,6.70672727 C0.99383908,6.689 0.965241379,6.68081818 0.938850575,6.68236364 C0.91108046,6.68463636 0.885701149,6.69736364 0.868045977,6.71836364 L0.0047816092,7.734 C-0.0314482759,7.77618182 -0.0268505747,7.83909091 0.0149885057,7.87563636 C0.992091954,8.738 2.19374713,9.19354545 3.49057471,9.19354545 C5.32514943,9.19354545 6.51062069,8.20254545 6.51062069,6.66863636 C6.51062069,5.37236364 5.72717241,4.65545455 3.80616092,4.19354545" id="Fill-1" sketch:type="MSShapeGroup"></path>
            <path d="M10.6611494,2.65618182 C9.86593103,2.65618182 9.21370115,2.96581818 8.67586207,3.60027273 L8.67586207,2.88618182 C8.67586207,2.82981818 8.6296092,2.78390909 8.5725977,2.78390909 L7.16082759,2.78390909 C7.10381609,2.78390909 7.05765517,2.82981818 7.05765517,2.88618182 L7.05765517,10.8211818 C7.05765517,10.8775455 7.10381609,10.9234545 7.16082759,10.9234545 L8.5725977,10.9234545 C8.6296092,10.9234545 8.67586207,10.8775455 8.67586207,10.8211818 L8.67586207,8.31645455 C9.2137931,8.91336364 9.86611494,9.20490909 10.6611494,9.20490909 C12.1386667,9.20490909 13.6342989,8.08045455 13.6342989,5.93090909 C13.6342989,3.78090909 12.1386667,2.65618182 10.6611494,2.65618182 L10.6611494,2.65618182 Z M11.9928276,5.93090909 C11.9928276,7.02545455 11.3108046,7.78936364 10.3343448,7.78936364 C9.36891954,7.78936364 8.64064368,6.99072727 8.64064368,5.93090909 C8.64064368,4.87118182 9.36891954,4.07254545 10.3343448,4.07254545 C11.2950805,4.07254545 11.9928276,4.85390909 11.9928276,5.93090909 L11.9928276,5.93090909 Z" id="Fill-2" sketch:type="MSShapeGroup"></path>
            <path d="M17.4683218,2.65618182 C15.5654253,2.65618182 14.0747586,4.10472727 14.0747586,5.95427273 C14.0747586,7.78372727 15.5552184,9.21709091 17.4449655,9.21709091 C19.3544828,9.21709091 20.8497471,7.77336364 20.8497471,5.93090909 C20.8497471,4.09454545 19.3647816,2.65618182 17.4683218,2.65618182 L17.4683218,2.65618182 Z M17.4683218,7.80081818 C16.4561839,7.80081818 15.6931494,6.99681818 15.6931494,5.93090909 C15.6931494,4.86054545 16.4297931,4.08372727 17.4449655,4.08372727 C18.4635402,4.08372727 19.2318161,4.88763636 19.2318161,5.95427273 C19.2318161,7.02445455 18.4901149,7.80081818 17.4683218,7.80081818 L17.4683218,7.80081818 Z" id="Fill-3" sketch:type="MSShapeGroup"></path>
            <path d="M24.9131954,2.78390909 L23.3595402,2.78390909 L23.3595402,1.21345455 C23.3595402,1.15709091 23.3134713,1.11127273 23.2564598,1.11127273 L21.8447816,1.11127273 C21.7876782,1.11127273 21.7413333,1.15709091 21.7413333,1.21345455 L21.7413333,2.78390909 L21.0624368,2.78390909 C21.0056092,2.78390909 20.9595402,2.82981818 20.9595402,2.88618182 L20.9595402,4.08572727 C20.9595402,4.142 21.0056092,4.188 21.0624368,4.188 L21.7413333,4.188 L21.7413333,7.292 C21.7413333,8.54636364 22.3727816,9.18236364 23.6182989,9.18236364 C24.1246897,9.18236364 24.5448276,9.079 24.9407816,8.857 C24.9729655,8.83918182 24.9930115,8.80490909 24.9930115,8.76845455 L24.9930115,7.62618182 C24.9930115,7.59090909 24.9744368,7.55763636 24.944,7.53918182 C24.9131954,7.52009091 24.8749425,7.51909091 24.8434023,7.53454545 C24.5714023,7.66981818 24.3084138,7.73227273 24.0146207,7.73227273 C23.5616552,7.73227273 23.3595402,7.52890909 23.3595402,7.07327273 L23.3595402,4.188 L24.9131954,4.188 C24.9702069,4.188 25.0161839,4.142 25.0161839,4.08572727 L25.0161839,2.88618182 C25.0161839,2.82981818 24.9702069,2.78390909 24.9131954,2.78390909" id="Fill-4" sketch:type="MSShapeGroup"></path>
            <path d="M30.326069,2.79 L30.326069,2.59709091 C30.326069,2.02963636 30.546023,1.77663636 31.0397241,1.77663636 C31.333977,1.77663636 31.5703908,1.83445455 31.8352184,1.92181818 C31.8677701,1.93190909 31.9018851,1.92681818 31.9283678,1.90754545 C31.9555862,1.88827273 31.9710345,1.85736364 31.9710345,1.82454545 L31.9710345,0.648363636 C31.9710345,0.603454545 31.9417011,0.563545455 31.898023,0.550363636 C31.6182989,0.468090909 31.2604138,0.383636364 30.7245057,0.383636364 C29.4204138,0.383636364 28.7312184,1.10963636 28.7312184,2.48236364 L28.7312184,2.77781818 L28.0529655,2.77781818 C27.996046,2.77781818 27.9493333,2.82363636 27.9493333,2.88 L27.9493333,4.08572727 C27.9493333,4.142 27.996046,4.188 28.0529655,4.188 L28.7312184,4.188 L28.7312184,8.97572727 C28.7312184,9.03209091 28.7771954,9.078 28.8341149,9.078 L30.245977,9.078 C30.3029885,9.078 30.3494253,9.03209091 30.3494253,8.97572727 L30.3494253,4.188 L31.6675862,4.188 L33.6868966,8.97454545 C33.4576552,9.47745455 33.2321839,9.57754545 32.9245057,9.57754545 C32.6757701,9.57754545 32.4137931,9.50409091 32.146023,9.35918182 C32.1207356,9.34554545 32.0909425,9.34318182 32.0637241,9.35154545 C32.0367816,9.361 32.014069,9.38072727 32.0026667,9.40672727 L31.5241379,10.4446364 C31.5013333,10.4936364 31.5208276,10.5512727 31.5686437,10.5766364 C32.0681379,10.8440909 32.5191724,10.9582727 33.0764138,10.9582727 C34.1188966,10.9582727 34.6951724,10.4781818 35.2031264,9.18663636 L37.6525057,2.92927273 C37.6648276,2.89781818 37.6611494,2.86227273 37.6415632,2.83436364 C37.6222529,2.80663636 37.5908966,2.79 37.5566897,2.79 L36.0868966,2.79 C36.0429425,2.79 36.0034943,2.81763636 35.9891494,2.85845455 L34.4834943,7.11027273 L32.8342989,2.85572727 C32.8192184,2.81609091 32.7806897,2.79 32.7378391,2.79 L30.326069,2.79" id="Fill-5" sketch:type="MSShapeGroup"></path>
            <path d="M27.188046,2.78390909 L25.7761839,2.78390909 C25.7191724,2.78390909 25.6727356,2.82981818 25.6727356,2.88618182 L25.6727356,8.97572727 C25.6727356,9.03209091 25.7191724,9.078 25.7761839,9.078 L27.188046,9.078 C27.2449655,9.078 27.2914943,9.03209091 27.2914943,8.97572727 L27.2914943,2.88618182 C27.2914943,2.82981818 27.2449655,2.78390909 27.188046,2.78390909" id="Fill-6" sketch:type="MSShapeGroup"></path>
            <path d="M26.4892874,0.0110909091 C25.930023,0.0110909091 25.4761379,0.458727273 25.4761379,1.01172727 C25.4761379,1.565 25.930023,2.01309091 26.4892874,2.01309091 C27.0483678,2.01309091 27.5017931,1.565 27.5017931,1.01172727 C27.5017931,0.458727273 27.0483678,0.0110909091 26.4892874,0.0110909091" id="Fill-7" sketch:type="MSShapeGroup"></path>
            <path d="M38.8578391,4.74172727 C38.2991264,4.74172727 37.8642759,4.29809091 37.8642759,3.75936364 C37.8642759,3.22063636 38.3048276,2.77190909 38.8630805,2.77190909 C39.4217931,2.77190909 39.8565517,3.21554545 39.8565517,3.75372727 C39.8565517,4.29254545 39.4164598,4.74172727 38.8578391,4.74172727 L38.8578391,4.74172727 Z M38.8630805,2.86963636 C38.3542069,2.86963636 37.9690115,3.26954545 37.9690115,3.75936364 C37.9690115,4.24890909 38.3513563,4.64354545 38.8578391,4.64354545 C39.3666207,4.64354545 39.7521839,4.24381818 39.7521839,3.75372727 C39.7521839,3.26427273 39.3695632,2.86963636 38.8630805,2.86963636 L38.8630805,2.86963636 Z M39.0833103,3.85481818 L39.3644138,4.24381818 L39.1274483,4.24381818 L38.8744828,3.887 L38.6569195,3.887 L38.6569195,4.24381818 L38.4585747,4.24381818 L38.4585747,3.21272727 L38.9236782,3.21272727 C39.165977,3.21272727 39.3253333,3.33527273 39.3253333,3.54163636 C39.3253333,3.71063636 39.2265747,3.81390909 39.0833103,3.85481818 L39.0833103,3.85481818 Z M38.9156782,3.38963636 L38.6569195,3.38963636 L38.6569195,3.71572727 L38.9156782,3.71572727 C39.0447816,3.71572727 39.1218391,3.65327273 39.1218391,3.55254545 C39.1218391,3.44645455 39.0447816,3.38963636 38.9156782,3.38963636 L38.9156782,3.38963636 Z" id="Fill-8" sketch:type="MSShapeGroup"></path>
        </g>
        <path d="M79.9,13.12 C81.7,13.12 82.27,12.09 82.27,11.23 C82.27,8.74 78.27,9.68 78.27,7.97 C78.27,7.25 78.94,6.74 79.83,6.74 C80.58,6.74 81.26,7 81.74,7.58 L82.12,7.16 C81.6,6.57 80.86,6.22 79.86,6.22 C78.65,6.22 77.67,6.91 77.67,8 C77.67,10.33 81.67,9.31 81.67,11.27 C81.67,11.84 81.28,12.6 79.91,12.6 C78.96,12.6 78.26,12.13 77.83,11.63 L77.46,12.06 C77.97,12.68 78.8,13.12 79.9,13.12 L79.9,13.12 Z M86.51,13 L86.51,10.23 L88.44,10.23 C89.71,10.23 90.45,9.33 90.45,8.28 C90.45,7.23 89.72,6.33 88.44,6.33 L85.94,6.33 L85.94,13 L86.51,13 Z M88.38,9.71 L86.51,9.71 L86.51,6.85 L88.38,6.85 C89.26,6.85 89.85,7.44 89.85,8.28 C89.85,9.12 89.26,9.71 88.38,9.71 L88.38,9.71 Z M96.9399999,13.12 C98.8899999,13.12 100.18,11.62 100.18,9.67 C100.18,7.72 98.8899999,6.22 96.9399999,6.22 C94.9799999,6.22 93.6999999,7.72 93.6999999,9.67 C93.6999999,11.62 94.9799999,13.12 96.9399999,13.12 L96.9399999,13.12 Z M96.9399999,12.6 C95.3199999,12.6 94.2999999,11.35 94.2999999,9.67 C94.2999999,7.97 95.3199999,6.74 96.9399999,6.74 C98.5399999,6.74 99.5799999,7.97 99.5799999,9.67 C99.5799999,11.35 98.5399999,12.6 96.9399999,12.6 L96.9399999,12.6 Z M105.88,13 L105.88,6.85 L108.06,6.85 L108.06,6.33 L103.12,6.33 L103.12,6.85 L105.3,6.85 L105.3,13 L105.88,13 Z M115.34,13 L115.34,12.48 L112.11,12.48 L112.11,6.33 L111.54,6.33 L111.54,13 L115.34,13 Z M119.45,13 L119.45,6.33 L118.88,6.33 L118.88,13 L119.45,13 Z M126.54,13.13 C127.59,13.13 128.48,12.68 129.07,12.02 L129.07,9.69 L125.98,9.69 L125.98,10.2 L128.5,10.2 L128.5,11.8 C128.13,12.17 127.43,12.61 126.54,12.61 C124.97,12.61 123.76,11.39 123.76,9.67 C123.76,7.93 124.97,6.74 126.54,6.74 C127.39,6.74 128.15,7.11 128.62,7.67 L129.05,7.36 C128.44,6.66 127.64,6.22 126.54,6.22 C124.67,6.22 123.16,7.61 123.16,9.67 C123.16,11.73 124.67,13.13 126.54,13.13 L126.54,13.13 Z M138.2,13 L138.2,6.33 L137.62,6.33 L137.62,9.31 L133.39,9.31 L133.39,6.33 L132.82,6.33 L132.82,13 L133.39,13 L133.39,9.83 L137.62,9.83 L137.62,13 L138.2,13 Z M144.43,13 L144.43,6.85 L146.61,6.85 L146.61,6.33 L141.67,6.33 L141.67,6.85 L143.85,6.85 L143.85,13 L144.43,13 Z" id="SPOTLIGHT" fill="#FFFFFF" sketch:type="MSShapeGroup"></path>
    </g>
</svg>