<svg width="461" height="461" viewBox="0 0 461 461" fill="none" xmlns="http://www.w3.org/2000/svg">
<path d="M285.08 230.397L456.218 59.27C462.294 53.193 462.294 43.359 456.218 37.284L423.511 4.56501C420.598 1.65401 416.645 0.0150146 412.519 0.0150146C408.392 0.0150146 404.439 1.65401 401.526 4.56501L230.388 175.705L59.25 4.56501C56.337 1.65401 52.384 0.0150146 48.257 0.0150146C44.131 0.0150146 40.177 1.65401 37.265 4.56501L4.55799 37.284C-1.51901 43.359 -1.51901 53.193 4.55799 59.27L175.696 230.398L4.57499 401.505C-1.49901 407.582 -1.49901 417.416 4.57499 423.491L37.284 456.21C40.195 459.121 44.149 460.76 48.276 460.76C52.403 460.76 56.356 459.121 59.27 456.21L230.387 285.09L401.505 456.21C404.418 459.121 408.371 460.76 412.498 460.76C416.626 460.76 420.579 459.121 423.49 456.21L456.199 423.491C462.273 417.416 462.273 407.582 456.199 401.505L285.08 230.397Z" fill="white"/>
</svg>
