<svg width="346" height="346" viewBox="0 0 346 346" fill="none" xmlns="http://www.w3.org/2000/svg">
<path fill-rule="evenodd" clip-rule="evenodd" d="M172.968 0.749969C157.612 38.3979 148.35 63.0242 131.253 99.5531C141.736 110.664 154.602 123.604 175.498 138.218C153.033 128.974 137.71 119.693 126.258 110.063C104.378 155.719 70.0978 220.755 0.532227 345.75C55.2084 314.185 97.5923 294.724 137.092 287.298C135.396 280.003 134.432 272.112 134.497 263.879L134.562 262.127C135.43 227.098 153.652 200.16 175.238 201.989C196.824 203.818 213.603 233.715 212.735 268.745C212.572 275.336 211.829 281.677 210.53 287.558C249.601 295.201 291.531 314.612 345.468 345.75C334.832 326.17 325.34 308.52 316.274 291.71C301.995 280.643 287.101 266.238 256.72 250.645C277.602 256.071 292.553 262.331 304.208 269.328C212.038 97.725 204.575 74.9225 172.968 0.749969Z" fill="white"/>
</svg>
