<svg id="Share" xmlns="http://www.w3.org/2000/svg" viewBox="0 0 32 32"><defs><style>.cls-1{fill:#00a9f0;}.cls-2{fill:#fefefe;fill-rule:evenodd;}</style></defs><title>skype_press</title><circle class="cls-1" cx="16" cy="16" r="16"/><path class="cls-2" d="M7519.67,6238.13a0.61,0.61,0,0,1,0-.38,8.44,8.44,0,0,0,0-3.07,8.58,8.58,0,0,0-9.55-7.09,1.12,1.12,0,0,1-.72-0.13,5,5,0,0,0-6.76,6.64,0.86,0.86,0,0,1,.09.61,8.94,8.94,0,0,0-.12,1.42c0,0.27,0,.57.05,0.86a8.58,8.58,0,0,0,9.9,7.58,0.64,0.64,0,0,1,.41.07,4.72,4.72,0,0,0,2.92.42A5,5,0,0,0,7519.67,6238.13Zm-4.27,2.29a4.17,4.17,0,0,1-2,1.25,7.72,7.72,0,0,1-4.43,0,3.73,3.73,0,0,1-2.71-2.62,1.18,1.18,0,0,1,1.34-1.6,1.17,1.17,0,0,1,.9.66c0.12,0.22.23,0.45,0.34,0.68a2.12,2.12,0,0,0,1.78,1.26,3.69,3.69,0,0,0,2-.26,1.82,1.82,0,0,0,.64-0.47,1.17,1.17,0,0,0-.19-1.75,4.74,4.74,0,0,0-1.88-.67,14.33,14.33,0,0,1-2.75-.8,3,3,0,0,1-1.89-2,2.77,2.77,0,0,1,1-3,5.13,5.13,0,0,1,2.9-1c0.24,0,.49,0,0.73,0a5.67,5.67,0,0,1,2.79.55,3.21,3.21,0,0,1,1.55,1.51,1.54,1.54,0,0,1,.13,1.07,1.12,1.12,0,0,1-.88.84,1.08,1.08,0,0,1-1.22-.42c-0.14-.21-0.28-0.43-0.41-0.64a2,2,0,0,0-1.82-1.08,4.81,4.81,0,0,0-1.12.08,2,2,0,0,0-.89.45,0.85,0.85,0,0,0,0,1.37,2.81,2.81,0,0,0,1.08.49l2.72,0.68a7.3,7.3,0,0,1,1.42.55A3.13,3.13,0,0,1,7515.4,6240.42Z" transform="translate(-7495.09 -6220)"/></svg>