<svg id="Share" xmlns="http://www.w3.org/2000/svg" xmlns:xlink="http://www.w3.org/1999/xlink" viewBox="0 0 32 32"><defs><style>.cls-1{fill:url(#linear-gradient);}.cls-2{fill:#fff;}</style><linearGradient id="linear-gradient" y1="16" x2="32" y2="16" gradientUnits="userSpaceOnUse"><stop offset="0" stop-color="#42bce8"/><stop offset="1" stop-color="#23a7dc"/></linearGradient></defs><title>telegram_press</title><circle class="cls-1" cx="16" cy="16" r="16"/><path class="cls-2" d="M7615.49,6228.48l-16.46,6.42a0.6,0.6,0,0,0,0,1.14l4.18,1.24,1.56,5a0.72,0.72,0,0,0,1.2.29l2.16-2.21,4.24,3.12a0.89,0.89,0,0,0,1.39-.53l2.81-13.44A0.85,0.85,0,0,0,7615.49,6228.48Zm-2.06,3-7.65,6.76a0.41,0.41,0,0,0-.14.26l-0.29,2.62a0.08,0.08,0,0,1-.15,0l-1.21-3.9a0.41,0.41,0,0,1,.18-0.47l9-5.6A0.2,0.2,0,0,1,7613.43,6231.46Z" transform="translate(-7591.65 -6220)"/></svg>