<svg id="Share" xmlns="http://www.w3.org/2000/svg" viewBox="0 0 32 32"><defs><style>.cls-1{fill:#395976;}.cls-2{fill:#fff;}</style></defs><title>tumbler_press</title><circle class="cls-1" cx="16" cy="16" r="16"/><path class="cls-2" d="M7419.86,6244.24a5.1,5.1,0,0,1-3.18,1.08h-0.14a4.83,4.83,0,0,1-5.19-5v-5.68a0.08,0.08,0,0,0-.08-0.08h-2a0.08,0.08,0,0,1-.08-0.08v-2.59a0.08,0.08,0,0,1,.05-0.08,5.6,5.6,0,0,0,3.61-5,0.15,0.15,0,0,1,.13-0.14h2.65a0.08,0.08,0,0,1,.08.08v4.55a0.08,0.08,0,0,0,.08.08h3.29a0.08,0.08,0,0,1,.08.08v3a0.08,0.08,0,0,1-.08.08h-3.31a0.08,0.08,0,0,0-.08.08v5.4a1.6,1.6,0,0,0,1.75,1.83,4.27,4.27,0,0,0,1.47-.29,0.08,0.08,0,0,1,.11.05l0.84,2.5a0.09,0.09,0,0,1,0,.09" transform="translate(-7398.54 -6220)"/></svg>