<svg id="Share" xmlns="http://www.w3.org/2000/svg" viewBox="0 0 32 32"><defs><style>.cls-1{fill:#1da1f2;}.cls-2{fill:#fff;}</style></defs><title>twitter_press</title><circle class="cls-1" cx="16" cy="16" r="16"/><path class="cls-2" d="M7363.77,6244.87a11.13,11.13,0,0,0,11.21-11.21q0-.26,0-0.51a8,8,0,0,0,2-2,7.85,7.85,0,0,1-2.26.62,4,4,0,0,0,1.73-2.18,7.9,7.9,0,0,1-2.5,1,3.94,3.94,0,0,0-6.71,3.59,11.19,11.19,0,0,1-8.12-4.12,3.94,3.94,0,0,0,1.22,5.26,3.91,3.91,0,0,1-1.78-.49v0.05a3.94,3.94,0,0,0,3.16,3.86,3.93,3.93,0,0,1-1.78.07,3.94,3.94,0,0,0,3.68,2.74,7.9,7.9,0,0,1-4.89,1.69,8,8,0,0,1-.94-0.05,11.15,11.15,0,0,0,6,1.77" transform="translate(-7350.26 -6220)"/></svg>