<svg width="240" height="220" viewBox="0 0 240 220" xmlns="http://www.w3.org/2000/svg" xmlns:xlink="http://www.w3.org/1999/xlink"><title>Top</title><defs><path id="a" d="M0 0h240v220H0z"/><linearGradient x1="50%" y1="-1.99203187%" x2="50%" y2="88.4462151%" id="c"><stop stop-color="#3B3B3B" offset="0%"/><stop stop-color="#282828" offset="100%"/></linearGradient><linearGradient x1="50%" y1="0%" x2="50%" y2="100%" id="d"><stop stop-color="#181818" stop-opacity="0" offset="0%"/><stop stop-color="#121212" offset="100%"/></linearGradient><path id="e" d="M0 0h240v220H0z"/></defs><g fill="none" fill-rule="evenodd"><g><g><g><mask id="b" fill="#fff"><use xlink:href="#a"/></mask><use fill="#121212" xlink:href="#a"/><g mask="url(#b)" fill-rule="nonzero" fill="url(#c)"><g><path d="M144.054419 42.9041c5.661129 0 11.014403-1.228112 15.83748-3.428478-18.505565 16.88653-30.118577 41.175842-30.118577 68.160176C129.773322 158.6535871 171.23126 200 222.3866612 200 273.5420622 200 315 158.6535871 315 107.635798c0-51.017789-41.4579378-92.364202-92.6133388-92.364202-18.0779872 0-34.9416532 5.168302-49.2056462 14.106222 5.575613-6.601098 8.927823-15.129648 8.927823-24.425768C182.108838-16.011127 165.074141-33 144.054419-33S106-16.011127 106 4.95205c0 20.963177 17.034697 37.95205 38.054419 37.95205zM19 218c34.799188 0 63-28.2008119 63-63 0-34.7991881-28.200812-63-63-63s-63 28.2008119-63 63c0 34.7991881 28.200812 63 63 63z"/></g></g><use fill="url(#d)" xlink:href="#e"/></g></g></g></g></svg>